<svg xmlns="http://www.w3.org/2000/svg" version="1.1"
     width="1440" height="560" preserveAspectRatio="none" viewBox="0 0 1440 560">
    <g mask="url(&quot;#SvgjsMask1016&quot;)" fill="none">
        <path d="M-90.53 344.58L-90.53 344.58" stroke="rgba(255, 0, 0, 0.7)" stroke-width="1.5"></path>
        <path d="M-90.53 344.58L104.18 399.58" stroke="rgba(255, 0, 0, 0.7)" stroke-width="1.5"></path>
        <path d="M-90.53 344.58L-85.45 548.76" stroke="rgba(255, 0, 0, 0.7)" stroke-width="1.5"></path>
        <path d="M-90.53 344.58L91.26 528.99" stroke="rgba(255, 0, 0, 0.7)" stroke-width="1.5"></path>
        <path d="M-90.53 344.58L230.19 374.75" stroke="rgba(255, 0, 0, 0.7)" stroke-width="1.5"></path>
        <path d="M-85.45 548.76L-85.45 548.76" stroke="rgba(255, 0, 0, 0.7)" stroke-width="1.5"></path>
        <path d="M-85.45 548.76L-47.83 705.11" stroke="rgba(255, 0, 0, 0.7)" stroke-width="1.5"></path>
        <path d="M-85.45 548.76L61.84 641.49" stroke="rgba(255, 0, 0, 0.7)" stroke-width="1.5"></path>
        <path d="M-85.45 548.76L91.26 528.99" stroke="rgba(255, 0, 0, 0.7)" stroke-width="1.5"></path>
        <path d="M-47.83 705.11L-47.83 705.11" stroke="rgba(255, 0, 0, 0.7)" stroke-width="1.5"></path>
        <path d="M-47.83 705.11L61.84 641.49" stroke="rgba(255, 0, 0, 0.7)" stroke-width="1.5"></path>
        <path d="M-47.83 705.11L91.26 528.99" stroke="rgba(255, 0, 0, 0.7)" stroke-width="1.5"></path>
        <path d="M-47.83 705.11L195.01 643.08" stroke="rgba(255, 0, 0, 0.7)" stroke-width="1.5"></path>
        <path d="M104.18 399.58L104.18 399.58" stroke="rgba(255, 0, 0, 0.7)" stroke-width="1.5"></path>
        <path d="M104.18 399.58L230.19 374.75" stroke="rgba(255, 0, 0, 0.7)" stroke-width="1.5"></path>
        <path d="M104.18 399.58L91.26 528.99" stroke="rgba(255, 0, 0, 0.7)" stroke-width="1.5"></path>
        <path d="M104.18 399.58L240.57 534.19" stroke="rgba(255, 0, 0, 0.7)" stroke-width="1.5"></path>
        <path d="M91.26 528.99L91.26 528.99" stroke="rgba(255, 0, 0, 0.7)" stroke-width="1.5"></path>
        <path d="M91.26 528.99L61.84 641.49" stroke="rgba(255, 0, 0, 0.7)" stroke-width="1.5"></path>
        <path d="M91.26 528.99L240.57 534.19" stroke="rgba(255, 0, 0, 0.7)" stroke-width="1.5"></path>
        <path d="M91.26 528.99L195.01 643.08" stroke="rgba(255, 0, 0, 0.7)" stroke-width="1.5"></path>
        <path d="M61.84 641.49L61.84 641.49" stroke="rgba(255, 0, 0, 0.7)" stroke-width="1.5"></path>
        <path d="M61.84 641.49L195.01 643.08" stroke="rgba(255, 0, 0, 0.7)" stroke-width="1.5"></path>
        <path d="M230.19 374.75L230.19 374.75" stroke="rgba(255, 0, 0, 0.7)" stroke-width="1.5"></path>
        <path d="M230.19 374.75L240.57 534.19" stroke="rgba(255, 0, 0, 0.7)" stroke-width="1.5"></path>
        <path d="M230.19 374.75L404.68 383.15" stroke="rgba(255, 0, 0, 0.7)" stroke-width="1.5"></path>
        <path d="M240.57 534.19L240.57 534.19" stroke="rgba(255, 0, 0, 0.7)" stroke-width="1.5"></path>
        <path d="M240.57 534.19L195.01 643.08" stroke="rgba(255, 0, 0, 0.7)" stroke-width="1.5"></path>
        <path d="M240.57 534.19L403.21 517.2" stroke="rgba(255, 0, 0, 0.7)" stroke-width="1.5"></path>
        <path d="M195.01 643.08L195.01 643.08" stroke="rgba(255, 0, 0, 0.7)" stroke-width="1.5"></path>
        <path d="M195.01 643.08L359.74 692.98" stroke="rgba(255, 0, 0, 0.7)" stroke-width="1.5"></path>
        <path d="M195.01 643.08L403.21 517.2" stroke="rgba(255, 0, 0, 0.7)" stroke-width="1.5"></path>
        <path d="M404.68 383.15L404.68 383.15" stroke="rgba(255, 0, 0, 0.7)" stroke-width="1.5"></path>
        <path d="M404.68 383.15L511.61 408.09" stroke="rgba(255, 0, 0, 0.7)" stroke-width="1.5"></path>
        <path d="M404.68 383.15L403.21 517.2" stroke="rgba(255, 0, 0, 0.7)" stroke-width="1.5"></path>
        <path d="M404.68 383.15L493.15 539.86" stroke="rgba(255, 0, 0, 0.7)" stroke-width="1.5"></path>
        <path d="M404.68 383.15L240.57 534.19" stroke="rgba(255, 0, 0, 0.7)" stroke-width="1.5"></path>
        <path d="M403.21 517.2L403.21 517.2" stroke="rgba(255, 0, 0, 0.7)" stroke-width="1.5"></path>
        <path d="M403.21 517.2L493.15 539.86" stroke="rgba(255, 0, 0, 0.7)" stroke-width="1.5"></path>
        <path d="M403.21 517.2L511.61 408.09" stroke="rgba(255, 0, 0, 0.7)" stroke-width="1.5"></path>
        <path d="M403.21 517.2L359.74 692.98" stroke="rgba(255, 0, 0, 0.7)" stroke-width="1.5"></path>
        <path d="M359.74 692.98L359.74 692.98" stroke="rgba(255, 0, 0, 0.7)" stroke-width="1.5"></path>
        <path d="M359.74 692.98L503.2 695.79" stroke="rgba(255, 0, 0, 0.7)" stroke-width="1.5"></path>
        <path d="M359.74 692.98L240.57 534.19" stroke="rgba(255, 0, 0, 0.7)" stroke-width="1.5"></path>
        <path d="M359.74 692.98L493.15 539.86" stroke="rgba(255, 0, 0, 0.7)" stroke-width="1.5"></path>
        <path d="M359.74 692.98L61.84 641.49" stroke="rgba(255, 0, 0, 0.7)" stroke-width="1.5"></path>
        <path d="M511.61 408.09L511.61 408.09" stroke="rgba(255, 0, 0, 0.7)" stroke-width="1.5"></path>
        <path d="M511.61 408.09L493.15 539.86" stroke="rgba(255, 0, 0, 0.7)" stroke-width="1.5"></path>
        <path d="M493.15 539.86L493.15 539.86" stroke="rgba(255, 0, 0, 0.7)" stroke-width="1.5"></path>
        <path d="M493.15 539.86L503.2 695.79" stroke="rgba(255, 0, 0, 0.7)" stroke-width="1.5"></path>
        <path d="M503.2 695.79L503.2 695.79" stroke="rgba(255, 0, 0, 0.7)" stroke-width="1.5"></path>
        <path d="M503.2 695.79L683.82 653.96" stroke="rgba(255, 0, 0, 0.7)" stroke-width="1.5"></path>
        <path d="M503.2 695.79L403.21 517.2" stroke="rgba(255, 0, 0, 0.7)" stroke-width="1.5"></path>
        <path d="M503.2 695.79L511.61 408.09" stroke="rgba(255, 0, 0, 0.7)" stroke-width="1.5"></path>
        <path d="M662.36 250.42L662.36 250.42" stroke="rgba(255, 0, 0, 0.7)" stroke-width="1.5"></path>
        <path d="M662.36 250.42L798.87 262.03" stroke="rgba(255, 0, 0, 0.7)" stroke-width="1.5"></path>
        <path d="M662.36 250.42L675.33 403.97" stroke="rgba(255, 0, 0, 0.7)" stroke-width="1.5"></path>
        <path d="M662.36 250.42L835.56 360.07" stroke="rgba(255, 0, 0, 0.7)" stroke-width="1.5"></path>
        <path d="M662.36 250.42L511.61 408.09" stroke="rgba(255, 0, 0, 0.7)" stroke-width="1.5"></path>
        <path d="M675.33 403.97L675.33 403.97" stroke="rgba(255, 0, 0, 0.7)" stroke-width="1.5"></path>
        <path d="M675.33 403.97L511.61 408.09" stroke="rgba(255, 0, 0, 0.7)" stroke-width="1.5"></path>
        <path d="M675.33 403.97L835.56 360.07" stroke="rgba(255, 0, 0, 0.7)" stroke-width="1.5"></path>
        <path d="M675.33 403.97L798.87 262.03" stroke="rgba(255, 0, 0, 0.7)" stroke-width="1.5"></path>
        <path d="M675.33 403.97L828.89 535" stroke="rgba(255, 0, 0, 0.7)" stroke-width="1.5"></path>
        <path d="M675.33 403.97L493.15 539.86" stroke="rgba(255, 0, 0, 0.7)" stroke-width="1.5"></path>
        <path d="M683.82 653.96L683.82 653.96" stroke="rgba(255, 0, 0, 0.7)" stroke-width="1.5"></path>
        <path d="M683.82 653.96L854.27 666.21" stroke="rgba(255, 0, 0, 0.7)" stroke-width="1.5"></path>
        <path d="M683.82 653.96L828.89 535" stroke="rgba(255, 0, 0, 0.7)" stroke-width="1.5"></path>
        <path d="M683.82 653.96L493.15 539.86" stroke="rgba(255, 0, 0, 0.7)" stroke-width="1.5"></path>
        <path d="M798.87 262.03L798.87 262.03" stroke="rgba(255, 0, 0, 0.7)" stroke-width="1.5"></path>
        <path d="M798.87 262.03L835.56 360.07" stroke="rgba(255, 0, 0, 0.7)" stroke-width="1.5"></path>
        <path d="M798.87 262.03L992.95 398.24" stroke="rgba(255, 0, 0, 0.7)" stroke-width="1.5"></path>
        <path d="M798.87 262.03L828.89 535" stroke="rgba(255, 0, 0, 0.7)" stroke-width="1.5"></path>
        <path d="M835.56 360.07L835.56 360.07" stroke="rgba(255, 0, 0, 0.7)" stroke-width="1.5"></path>
        <path d="M835.56 360.07L992.95 398.24" stroke="rgba(255, 0, 0, 0.7)" stroke-width="1.5"></path>
        <path d="M828.89 535L828.89 535" stroke="rgba(255, 0, 0, 0.7)" stroke-width="1.5"></path>
        <path d="M828.89 535L854.27 666.21" stroke="rgba(255, 0, 0, 0.7)" stroke-width="1.5"></path>
        <path d="M828.89 535L982.53 551.15" stroke="rgba(255, 0, 0, 0.7)" stroke-width="1.5"></path>
        <path d="M828.89 535L835.56 360.07" stroke="rgba(255, 0, 0, 0.7)" stroke-width="1.5"></path>
        <path d="M854.27 666.21L854.27 666.21" stroke="rgba(255, 0, 0, 0.7)" stroke-width="1.5"></path>
        <path d="M854.27 666.21L999.45 663.5" stroke="rgba(255, 0, 0, 0.7)" stroke-width="1.5"></path>
        <path d="M854.27 666.21L982.53 551.15" stroke="rgba(255, 0, 0, 0.7)" stroke-width="1.5"></path>
        <path d="M957.45 -90.57L957.45 -90.57" stroke="rgba(255, 0, 0, 0.7)" stroke-width="1.5"></path>
        <path d="M957.45 -90.57L991.4 56.66" stroke="rgba(255, 0, 0, 0.7)" stroke-width="1.5"></path>
        <path d="M957.45 -90.57L1157.86 -37.87" stroke="rgba(255, 0, 0, 0.7)" stroke-width="1.5"></path>
        <path d="M957.45 -90.57L1116.48 43.59" stroke="rgba(255, 0, 0, 0.7)" stroke-width="1.5"></path>
        <path d="M957.45 -90.57L1283.64 -110.36" stroke="rgba(255, 0, 0, 0.7)" stroke-width="1.5"></path>
        <path d="M957.45 -90.57L1135.34 199.86" stroke="rgba(255, 0, 0, 0.7)" stroke-width="1.5"></path>
        <path d="M957.45 -90.57L1275.71 50.13" stroke="rgba(255, 0, 0, 0.7)" stroke-width="1.5"></path>
        <path d="M991.4 56.66L991.4 56.66" stroke="rgba(255, 0, 0, 0.7)" stroke-width="1.5"></path>
        <path d="M991.4 56.66L1116.48 43.59" stroke="rgba(255, 0, 0, 0.7)" stroke-width="1.5"></path>
        <path d="M992.95 398.24L992.95 398.24" stroke="rgba(255, 0, 0, 0.7)" stroke-width="1.5"></path>
        <path d="M992.95 398.24L1097.35 349.11" stroke="rgba(255, 0, 0, 0.7)" stroke-width="1.5"></path>
        <path d="M992.95 398.24L982.53 551.15" stroke="rgba(255, 0, 0, 0.7)" stroke-width="1.5"></path>
        <path d="M992.95 398.24L1145.48 528.93" stroke="rgba(255, 0, 0, 0.7)" stroke-width="1.5"></path>
        <path d="M982.53 551.15L982.53 551.15" stroke="rgba(255, 0, 0, 0.7)" stroke-width="1.5"></path>
        <path d="M982.53 551.15L999.45 663.5" stroke="rgba(255, 0, 0, 0.7)" stroke-width="1.5"></path>
        <path d="M999.45 663.5L999.45 663.5" stroke="rgba(255, 0, 0, 0.7)" stroke-width="1.5"></path>
        <path d="M999.45 663.5L1119.75 662.31" stroke="rgba(255, 0, 0, 0.7)" stroke-width="1.5"></path>
        <path d="M999.45 663.5L1145.48 528.93" stroke="rgba(255, 0, 0, 0.7)" stroke-width="1.5"></path>
        <path d="M999.45 663.5L828.89 535" stroke="rgba(255, 0, 0, 0.7)" stroke-width="1.5"></path>
        <path d="M999.45 663.5L1252.44 710.52" stroke="rgba(255, 0, 0, 0.7)" stroke-width="1.5"></path>
        <path d="M1157.86 -37.87L1157.86 -37.87" stroke="rgba(255, 0, 0, 0.7)" stroke-width="1.5"></path>
        <path d="M1157.86 -37.87L1116.48 43.59" stroke="rgba(255, 0, 0, 0.7)" stroke-width="1.5"></path>
        <path d="M1157.86 -37.87L1283.64 -110.36" stroke="rgba(255, 0, 0, 0.7)" stroke-width="1.5"></path>
        <path d="M1157.86 -37.87L1275.71 50.13" stroke="rgba(255, 0, 0, 0.7)" stroke-width="1.5"></path>
        <path d="M1116.48 43.59L1116.48 43.59" stroke="rgba(255, 0, 0, 0.7)" stroke-width="1.5"></path>
        <path d="M1135.34 199.86L1135.34 199.86" stroke="rgba(255, 0, 0, 0.7)" stroke-width="1.5"></path>
        <path d="M1135.34 199.86L1262.84 188.34" stroke="rgba(255, 0, 0, 0.7)" stroke-width="1.5"></path>
        <path d="M1135.34 199.86L1097.35 349.11" stroke="rgba(255, 0, 0, 0.7)" stroke-width="1.5"></path>
        <path d="M1135.34 199.86L1116.48 43.59" stroke="rgba(255, 0, 0, 0.7)" stroke-width="1.5"></path>
        <path d="M1135.34 199.86L1246.12 351.97" stroke="rgba(255, 0, 0, 0.7)" stroke-width="1.5"></path>
        <path d="M1135.34 199.86L991.4 56.66" stroke="rgba(255, 0, 0, 0.7)" stroke-width="1.5"></path>
        <path d="M1097.35 349.11L1097.35 349.11" stroke="rgba(255, 0, 0, 0.7)" stroke-width="1.5"></path>
        <path d="M1097.35 349.11L1246.12 351.97" stroke="rgba(255, 0, 0, 0.7)" stroke-width="1.5"></path>
        <path d="M1097.35 349.11L1145.48 528.93" stroke="rgba(255, 0, 0, 0.7)" stroke-width="1.5"></path>
        <path d="M1097.35 349.11L1262.84 188.34" stroke="rgba(255, 0, 0, 0.7)" stroke-width="1.5"></path>
        <path d="M1145.48 528.93L1145.48 528.93" stroke="rgba(255, 0, 0, 0.7)" stroke-width="1.5"></path>
        <path d="M1145.48 528.93L1272.56 525.76" stroke="rgba(255, 0, 0, 0.7)" stroke-width="1.5"></path>
        <path d="M1145.48 528.93L1119.75 662.31" stroke="rgba(255, 0, 0, 0.7)" stroke-width="1.5"></path>
        <path d="M1145.48 528.93L982.53 551.15" stroke="rgba(255, 0, 0, 0.7)" stroke-width="1.5"></path>
        <path d="M1119.75 662.31L1119.75 662.31" stroke="rgba(255, 0, 0, 0.7)" stroke-width="1.5"></path>
        <path d="M1119.75 662.31L1252.44 710.52" stroke="rgba(255, 0, 0, 0.7)" stroke-width="1.5"></path>
        <path d="M1119.75 662.31L982.53 551.15" stroke="rgba(255, 0, 0, 0.7)" stroke-width="1.5"></path>
        <path d="M1283.64 -110.36L1283.64 -110.36" stroke="rgba(255, 0, 0, 0.7)" stroke-width="1.5"></path>
        <path d="M1283.64 -110.36L1275.71 50.13" stroke="rgba(255, 0, 0, 0.7)" stroke-width="1.5"></path>
        <path d="M1283.64 -110.36L1116.48 43.59" stroke="rgba(255, 0, 0, 0.7)" stroke-width="1.5"></path>
        <path d="M1275.71 50.13L1275.71 50.13" stroke="rgba(255, 0, 0, 0.7)" stroke-width="1.5"></path>
        <path d="M1275.71 50.13L1262.84 188.34" stroke="rgba(255, 0, 0, 0.7)" stroke-width="1.5"></path>
        <path d="M1275.71 50.13L1116.48 43.59" stroke="rgba(255, 0, 0, 0.7)" stroke-width="1.5"></path>
        <path d="M1275.71 50.13L1432.76 89.62" stroke="rgba(255, 0, 0, 0.7)" stroke-width="1.5"></path>
        <path d="M1262.84 188.34L1262.84 188.34" stroke="rgba(255, 0, 0, 0.7)" stroke-width="1.5"></path>
        <path d="M1262.84 188.34L1246.12 351.97" stroke="rgba(255, 0, 0, 0.7)" stroke-width="1.5"></path>
        <path d="M1262.84 188.34L1445.8 195.4" stroke="rgba(255, 0, 0, 0.7)" stroke-width="1.5"></path>
        <path d="M1262.84 188.34L1432.76 89.62" stroke="rgba(255, 0, 0, 0.7)" stroke-width="1.5"></path>
        <path d="M1262.84 188.34L1116.48 43.59" stroke="rgba(255, 0, 0, 0.7)" stroke-width="1.5"></path>
        <path d="M1246.12 351.97L1246.12 351.97" stroke="rgba(255, 0, 0, 0.7)" stroke-width="1.5"></path>
        <path d="M1246.12 351.97L1272.56 525.76" stroke="rgba(255, 0, 0, 0.7)" stroke-width="1.5"></path>
        <path d="M1272.56 525.76L1272.56 525.76" stroke="rgba(255, 0, 0, 0.7)" stroke-width="1.5"></path>
        <path d="M1272.56 525.76L1449.21 559.94" stroke="rgba(255, 0, 0, 0.7)" stroke-width="1.5"></path>
        <path d="M1272.56 525.76L1252.44 710.52" stroke="rgba(255, 0, 0, 0.7)" stroke-width="1.5"></path>
        <path d="M1252.44 710.52L1252.44 710.52" stroke="rgba(255, 0, 0, 0.7)" stroke-width="1.5"></path>
        <path d="M1252.44 710.52L1409.28 706.19" stroke="rgba(255, 0, 0, 0.7)" stroke-width="1.5"></path>
        <path d="M1252.44 710.52L1145.48 528.93" stroke="rgba(255, 0, 0, 0.7)" stroke-width="1.5"></path>
        <path d="M1252.44 710.52L1449.21 559.94" stroke="rgba(255, 0, 0, 0.7)" stroke-width="1.5"></path>
        <path d="M1432.76 89.62L1432.76 89.62" stroke="rgba(255, 0, 0, 0.7)" stroke-width="1.5"></path>
        <path d="M1432.76 89.62L1445.8 195.4" stroke="rgba(255, 0, 0, 0.7)" stroke-width="1.5"></path>
        <path d="M1432.76 89.62L1566.14 64.87" stroke="rgba(255, 0, 0, 0.7)" stroke-width="1.5"></path>
        <path d="M1432.76 89.62L1543.79 207.45" stroke="rgba(255, 0, 0, 0.7)" stroke-width="1.5"></path>
        <path d="M1445.8 195.4L1445.8 195.4" stroke="rgba(255, 0, 0, 0.7)" stroke-width="1.5"></path>
        <path d="M1445.8 195.4L1543.79 207.45" stroke="rgba(255, 0, 0, 0.7)" stroke-width="1.5"></path>
        <path d="M1445.8 195.4L1435.68 357.22" stroke="rgba(255, 0, 0, 0.7)" stroke-width="1.5"></path>
        <path d="M1445.8 195.4L1566.14 64.87" stroke="rgba(255, 0, 0, 0.7)" stroke-width="1.5"></path>
        <path d="M1445.8 195.4L1538.86 379.86" stroke="rgba(255, 0, 0, 0.7)" stroke-width="1.5"></path>
        <path d="M1435.68 357.22L1435.68 357.22" stroke="rgba(255, 0, 0, 0.7)" stroke-width="1.5"></path>
        <path d="M1435.68 357.22L1538.86 379.86" stroke="rgba(255, 0, 0, 0.7)" stroke-width="1.5"></path>
        <path d="M1435.68 357.22L1543.79 207.45" stroke="rgba(255, 0, 0, 0.7)" stroke-width="1.5"></path>
        <path d="M1449.21 559.94L1449.21 559.94" stroke="rgba(255, 0, 0, 0.7)" stroke-width="1.5"></path>
        <path d="M1449.21 559.94L1570.8 560.89" stroke="rgba(255, 0, 0, 0.7)" stroke-width="1.5"></path>
        <path d="M1449.21 559.94L1409.28 706.19" stroke="rgba(255, 0, 0, 0.7)" stroke-width="1.5"></path>
        <path d="M1449.21 559.94L1538.86 379.86" stroke="rgba(255, 0, 0, 0.7)" stroke-width="1.5"></path>
        <path d="M1449.21 559.94L1435.68 357.22" stroke="rgba(255, 0, 0, 0.7)" stroke-width="1.5"></path>
        <path d="M1409.28 706.19L1409.28 706.19" stroke="rgba(255, 0, 0, 0.7)" stroke-width="1.5"></path>
        <path d="M1585.78 -87.93L1585.78 -87.93" stroke="rgba(255, 0, 0, 0.7)" stroke-width="1.5"></path>
        <path d="M1585.78 -87.93L1566.14 64.87" stroke="rgba(255, 0, 0, 0.7)" stroke-width="1.5"></path>
        <path d="M1585.78 -87.93L1432.76 89.62" stroke="rgba(255, 0, 0, 0.7)" stroke-width="1.5"></path>
        <path d="M1585.78 -87.93L1543.79 207.45" stroke="rgba(255, 0, 0, 0.7)" stroke-width="1.5"></path>
        <path d="M1585.78 -87.93L1283.64 -110.36" stroke="rgba(255, 0, 0, 0.7)" stroke-width="1.5"></path>
        <path d="M1566.14 64.87L1566.14 64.87" stroke="rgba(255, 0, 0, 0.7)" stroke-width="1.5"></path>
        <path d="M1566.14 64.87L1543.79 207.45" stroke="rgba(255, 0, 0, 0.7)" stroke-width="1.5"></path>
        <path d="M1543.79 207.45L1543.79 207.45" stroke="rgba(255, 0, 0, 0.7)" stroke-width="1.5"></path>
        <path d="M1543.79 207.45L1538.86 379.86" stroke="rgba(255, 0, 0, 0.7)" stroke-width="1.5"></path>
        <path d="M1538.86 379.86L1538.86 379.86" stroke="rgba(255, 0, 0, 0.7)" stroke-width="1.5"></path>
        <path d="M1538.86 379.86L1570.8 560.89" stroke="rgba(255, 0, 0, 0.7)" stroke-width="1.5"></path>
        <path d="M1538.86 379.86L1246.12 351.97" stroke="rgba(255, 0, 0, 0.7)" stroke-width="1.5"></path>
        <path d="M1570.8 560.89L1570.8 560.89" stroke="rgba(255, 0, 0, 0.7)" stroke-width="1.5"></path>
        <path d="M1570.8 560.89L1608.22 710.69" stroke="rgba(255, 0, 0, 0.7)" stroke-width="1.5"></path>
        <path d="M1570.8 560.89L1409.28 706.19" stroke="rgba(255, 0, 0, 0.7)" stroke-width="1.5"></path>
        <path d="M1608.22 710.69L1608.22 710.69" stroke="rgba(255, 0, 0, 0.7)" stroke-width="1.5"></path>
        <path d="M1608.22 710.69L1409.28 706.19" stroke="rgba(255, 0, 0, 0.7)" stroke-width="1.5"></path>
        <path d="M1608.22 710.69L1449.21 559.94" stroke="rgba(255, 0, 0, 0.7)" stroke-width="1.5"></path>
        <path d="M1608.22 710.69L1538.86 379.86" stroke="rgba(255, 0, 0, 0.7)" stroke-width="1.5"></path>
        <path d="M1608.22 710.69L1252.44 710.52" stroke="rgba(255, 0, 0, 0.7)" stroke-width="1.5"></path>
        <circle r="5" cx="-90.53" cy="344.58" fill="rgba(255, 0, 0, 0.7)"></circle>
        <circle r="5" cx="-85.45" cy="548.76" fill="rgba(255, 0, 0, 0.7)"></circle>
        <circle r="5" cx="-47.83" cy="705.11" fill="rgba(255, 0, 0, 0.7)"></circle>
        <circle r="5" cx="104.18" cy="399.58" fill="rgba(255, 0, 0, 0.7)"></circle>
        <circle r="5" cx="91.26" cy="528.99" fill="rgba(255, 0, 0, 0.7)"></circle>
        <circle r="5" cx="61.84" cy="641.49" fill="rgba(255, 0, 0, 0.7)"></circle>
        <circle r="5" cx="230.19" cy="374.75" fill="rgba(255, 0, 0, 0.7)"></circle>
        <circle r="5" cx="240.57" cy="534.19" fill="rgba(255, 0, 0, 0.7)"></circle>
        <circle r="5" cx="195.01" cy="643.08" fill="rgba(255, 0, 0, 0.7)"></circle>
        <circle r="5" cx="404.68" cy="383.15" fill="rgba(255, 0, 0, 0.7)"></circle>
        <circle r="5" cx="403.21" cy="517.2" fill="rgba(255, 0, 0, 0.7)"></circle>
        <circle r="5" cx="359.74" cy="692.98" fill="rgba(255, 0, 0, 0.7)"></circle>
        <circle r="5" cx="511.61" cy="408.09" fill="rgba(255, 0, 0, 0.7)"></circle>
        <circle r="5" cx="493.15" cy="539.86" fill="rgba(255, 0, 0, 0.7)"></circle>
        <circle r="5" cx="503.2" cy="695.79" fill="rgba(255, 0, 0, 0.7)"></circle>
        <circle r="5" cx="662.36" cy="250.42" fill="rgba(255, 0, 0, 0.7)"></circle>
        <circle r="5" cx="675.33" cy="403.97" fill="rgba(255, 0, 0, 0.7)"></circle>
        <circle r="5" cx="683.82" cy="653.96" fill="rgba(255, 0, 0, 0.7)"></circle>
        <circle r="5" cx="798.87" cy="262.03" fill="rgba(255, 0, 0, 0.7)"></circle>
        <circle r="5" cx="835.56" cy="360.07" fill="rgba(255, 0, 0, 0.7)"></circle>
        <circle r="5" cx="828.89" cy="535" fill="rgba(255, 0, 0, 0.7)"></circle>
        <circle r="5" cx="854.27" cy="666.21" fill="rgba(255, 0, 0, 0.7)"></circle>
        <circle r="5" cx="957.45" cy="-90.57" fill="rgba(255, 0, 0, 0.7)"></circle>
        <circle r="5" cx="991.4" cy="56.66" fill="rgba(255, 0, 0, 0.7)"></circle>
        <circle r="5" cx="992.95" cy="398.24" fill="rgba(255, 0, 0, 0.7)"></circle>
        <circle r="5" cx="982.53" cy="551.15" fill="rgba(255, 0, 0, 0.7)"></circle>
        <circle r="5" cx="999.45" cy="663.5" fill="rgba(255, 0, 0, 0.7)"></circle>
        <circle r="5" cx="1157.86" cy="-37.87" fill="rgba(255, 0, 0, 0.7)"></circle>
        <circle r="5" cx="1116.48" cy="43.59" fill="rgba(255, 0, 0, 0.7)"></circle>
        <circle r="5" cx="1135.34" cy="199.86" fill="rgba(255, 0, 0, 0.7)"></circle>
        <circle r="5" cx="1097.35" cy="349.11" fill="rgba(255, 0, 0, 0.7)"></circle>
        <circle r="5" cx="1145.48" cy="528.93" fill="rgba(255, 0, 0, 0.7)"></circle>
        <circle r="5" cx="1119.75" cy="662.31" fill="rgba(255, 0, 0, 0.7)"></circle>
        <circle r="5" cx="1283.64" cy="-110.36" fill="rgba(255, 0, 0, 0.7)"></circle>
        <circle r="5" cx="1275.71" cy="50.13" fill="rgba(255, 0, 0, 0.7)"></circle>
        <circle r="5" cx="1262.84" cy="188.34" fill="rgba(255, 0, 0, 0.7)"></circle>
        <circle r="5" cx="1246.12" cy="351.97" fill="rgba(255, 0, 0, 0.7)"></circle>
        <circle r="5" cx="1272.56" cy="525.76" fill="rgba(255, 0, 0, 0.7)"></circle>
        <circle r="5" cx="1252.44" cy="710.52" fill="rgba(255, 0, 0, 0.7)"></circle>
        <circle r="5" cx="1432.76" cy="89.62" fill="rgba(255, 0, 0, 0.7)"></circle>
        <circle r="5" cx="1445.8" cy="195.4" fill="rgba(255, 0, 0, 0.7)"></circle>
        <circle r="5" cx="1435.68" cy="357.22" fill="rgba(255, 0, 0, 0.7)"></circle>
        <circle r="5" cx="1449.21" cy="559.94" fill="rgba(255, 0, 0, 0.7)"></circle>
        <circle r="5" cx="1409.28" cy="706.19" fill="rgba(255, 0, 0, 0.7)"></circle>
        <circle r="5" cx="1585.78" cy="-87.93" fill="rgba(255, 0, 0, 0.7)"></circle>
        <circle r="5" cx="1566.14" cy="64.87" fill="rgba(255, 0, 0, 0.7)"></circle>
        <circle r="5" cx="1543.79" cy="207.45" fill="rgba(255, 0, 0, 0.7)"></circle>
        <circle r="5" cx="1538.86" cy="379.86" fill="rgba(255, 0, 0, 0.7)"></circle>
        <circle r="5" cx="1570.8" cy="560.89" fill="rgba(255, 0, 0, 0.7)"></circle>
        <circle r="5" cx="1608.22" cy="710.69" fill="rgba(255, 0, 0, 0.7)"></circle>
        <path d="M248.6 554.87L248.6 554.87" stroke="hsl(0, 100%, 65%)" stroke-width="1.5"></path>
        <path d="M248.6 554.87L245.75 644.62" stroke="hsl(0, 100%, 65%)" stroke-width="1.5"></path>
        <path d="M248.6 554.87L403.67 524.34" stroke="hsl(0, 100%, 65%)" stroke-width="1.5"></path>
        <path d="M248.6 554.87L71.17 546.23" stroke="hsl(0, 100%, 65%)" stroke-width="1.5"></path>
        <path d="M248.6 554.87L385.4 678.2" stroke="hsl(0, 100%, 65%)" stroke-width="1.5"></path>
        <path d="M248.6 554.87L79.09 693.78" stroke="hsl(0, 100%, 65%)" stroke-width="1.5"></path>
        <path d="M645.02 379.59L645.02 379.59" stroke="hsl(0, 100%, 65%)" stroke-width="1.5"></path>
        <path d="M645.02 379.59L675.43 523.48" stroke="hsl(0, 100%, 65%)" stroke-width="1.5"></path>
        <path d="M645.02 379.59L541.06 520.64" stroke="hsl(0, 100%, 65%)" stroke-width="1.5"></path>
        <path d="M645.02 379.59L833.18 402.19" stroke="hsl(0, 100%, 65%)" stroke-width="1.5"></path>
        <path d="M830.8 655.09L830.8 655.09" stroke="hsl(0, 100%, 65%)" stroke-width="1.5"></path>
        <path d="M830.8 655.09L684.67 638.94" stroke="hsl(0, 100%, 65%)" stroke-width="1.5"></path>
        <path d="M830.8 655.09L990.46 538.73" stroke="hsl(0, 100%, 65%)" stroke-width="1.5"></path>
        <path d="M830.8 655.09L675.43 523.48" stroke="hsl(0, 100%, 65%)" stroke-width="1.5"></path>
        <path d="M830.8 655.09L833.18 402.19" stroke="hsl(0, 100%, 65%)" stroke-width="1.5"></path>
        <path d="M830.8 655.09L525.86 663.58" stroke="hsl(0, 100%, 65%)" stroke-width="1.5"></path>
        <path d="M1263.18 669.11L1263.18 669.11" stroke="hsl(0, 100%, 65%)" stroke-width="1.5"></path>
        <path d="M1263.18 669.11L1161.09 672.99" stroke="hsl(0, 100%, 65%)" stroke-width="1.5"></path>
        <path d="M1263.18 669.11L1309.37 519.53" stroke="hsl(0, 100%, 65%)" stroke-width="1.5"></path>
        <path d="M1263.18 669.11L1426.94 695.91" stroke="hsl(0, 100%, 65%)" stroke-width="1.5"></path>
        <path d="M1263.18 669.11L1428.48 553.08" stroke="hsl(0, 100%, 65%)" stroke-width="1.5"></path>
        <path d="M1263.18 669.11L1132.19 513.36" stroke="hsl(0, 100%, 65%)" stroke-width="1.5"></path>
        <path d="M1263.18 669.11L1121.07 411.32" stroke="hsl(0, 100%, 65%)" stroke-width="1.5"></path>
        <path d="M1426.94 695.91L1426.94 695.91" stroke="hsl(0, 100%, 65%)" stroke-width="1.5"></path>
        <path d="M1426.94 695.91L1564.19 658.02" stroke="hsl(0, 100%, 65%)" stroke-width="1.5"></path>
        <path d="M1426.94 695.91L1428.48 553.08" stroke="hsl(0, 100%, 65%)" stroke-width="1.5"></path>
        <path d="M1426.94 695.91L1564.09 559.41" stroke="hsl(0, 100%, 65%)" stroke-width="1.5"></path>
        <path d="M1426.94 695.91L1309.37 519.53" stroke="hsl(0, 100%, 65%)" stroke-width="1.5"></path>
        <path d="M1426.94 695.91L1161.09 672.99" stroke="hsl(0, 100%, 65%)" stroke-width="1.5"></path>
        <path d="M1568.44 194.59L1568.44 194.59" stroke="hsl(0, 100%, 65%)" stroke-width="1.5"></path>
        <path d="M1568.44 194.59L1551.13 77.52" stroke="hsl(0, 100%, 65%)" stroke-width="1.5"></path>
        <path d="M-69.56 514.28L-69.56 514.28" stroke="hsl(0, 100%, 65%)" stroke-width="1.5"></path>
        <path d="M-69.56 514.28L71.17 546.23" stroke="hsl(0, 100%, 65%)" stroke-width="1.5"></path>
        <path d="M-69.56 514.28L-74.93 680.02" stroke="hsl(0, 100%, 65%)" stroke-width="1.5"></path>
        <path d="M-74.93 680.02L-74.93 680.02" stroke="hsl(0, 100%, 65%)" stroke-width="1.5"></path>
        <path d="M-74.93 680.02L79.09 693.78" stroke="hsl(0, 100%, 65%)" stroke-width="1.5"></path>
        <path d="M71.17 546.23L71.17 546.23" stroke="hsl(0, 100%, 65%)" stroke-width="1.5"></path>
        <path d="M71.17 546.23L79.09 693.78" stroke="hsl(0, 100%, 65%)" stroke-width="1.5"></path>
        <path d="M79.09 693.78L79.09 693.78" stroke="hsl(0, 100%, 65%)" stroke-width="1.5"></path>
        <path d="M79.09 693.78L245.75 644.62" stroke="hsl(0, 100%, 65%)" stroke-width="1.5"></path>
        <path d="M79.09 693.78L-69.56 514.28" stroke="hsl(0, 100%, 65%)" stroke-width="1.5"></path>
        <path d="M245.75 644.62L245.75 644.62" stroke="hsl(0, 100%, 65%)" stroke-width="1.5"></path>
        <path d="M245.75 644.62L385.4 678.2" stroke="hsl(0, 100%, 65%)" stroke-width="1.5"></path>
        <path d="M403.67 524.34L403.67 524.34" stroke="hsl(0, 100%, 65%)" stroke-width="1.5"></path>
        <path d="M403.67 524.34L541.06 520.64" stroke="hsl(0, 100%, 65%)" stroke-width="1.5"></path>
        <path d="M403.67 524.34L385.4 678.2" stroke="hsl(0, 100%, 65%)" stroke-width="1.5"></path>
        <path d="M385.4 678.2L385.4 678.2" stroke="hsl(0, 100%, 65%)" stroke-width="1.5"></path>
        <path d="M385.4 678.2L525.86 663.58" stroke="hsl(0, 100%, 65%)" stroke-width="1.5"></path>
        <path d="M541.06 520.64L541.06 520.64" stroke="hsl(0, 100%, 65%)" stroke-width="1.5"></path>
        <path d="M541.06 520.64L675.43 523.48" stroke="hsl(0, 100%, 65%)" stroke-width="1.5"></path>
        <path d="M541.06 520.64L525.86 663.58" stroke="hsl(0, 100%, 65%)" stroke-width="1.5"></path>
        <path d="M525.86 663.58L525.86 663.58" stroke="hsl(0, 100%, 65%)" stroke-width="1.5"></path>
        <path d="M525.86 663.58L684.67 638.94" stroke="hsl(0, 100%, 65%)" stroke-width="1.5"></path>
        <path d="M525.86 663.58L403.67 524.34" stroke="hsl(0, 100%, 65%)" stroke-width="1.5"></path>
        <path d="M675.43 523.48L675.43 523.48" stroke="hsl(0, 100%, 65%)" stroke-width="1.5"></path>
        <path d="M675.43 523.48L684.67 638.94" stroke="hsl(0, 100%, 65%)" stroke-width="1.5"></path>
        <path d="M684.67 638.94L684.67 638.94" stroke="hsl(0, 100%, 65%)" stroke-width="1.5"></path>
        <path d="M684.67 638.94L541.06 520.64" stroke="hsl(0, 100%, 65%)" stroke-width="1.5"></path>
        <path d="M684.67 638.94L645.02 379.59" stroke="hsl(0, 100%, 65%)" stroke-width="1.5"></path>
        <path d="M833.18 402.19L833.18 402.19" stroke="hsl(0, 100%, 65%)" stroke-width="1.5"></path>
        <path d="M833.18 402.19L978.53 349.35" stroke="hsl(0, 100%, 65%)" stroke-width="1.5"></path>
        <path d="M833.18 402.19L675.43 523.48" stroke="hsl(0, 100%, 65%)" stroke-width="1.5"></path>
        <path d="M833.18 402.19L990.46 538.73" stroke="hsl(0, 100%, 65%)" stroke-width="1.5"></path>
        <path d="M833.18 402.19L684.67 638.94" stroke="hsl(0, 100%, 65%)" stroke-width="1.5"></path>
        <path d="M978.53 349.35L978.53 349.35" stroke="hsl(0, 100%, 65%)" stroke-width="1.5"></path>
        <path d="M978.53 349.35L1121.07 411.32" stroke="hsl(0, 100%, 65%)" stroke-width="1.5"></path>
        <path d="M978.53 349.35L1113.76 244.37" stroke="hsl(0, 100%, 65%)" stroke-width="1.5"></path>
        <path d="M978.53 349.35L990.46 538.73" stroke="hsl(0, 100%, 65%)" stroke-width="1.5"></path>
        <path d="M978.53 349.35L1132.19 513.36" stroke="hsl(0, 100%, 65%)" stroke-width="1.5"></path>
        <path d="M990.46 538.73L990.46 538.73" stroke="hsl(0, 100%, 65%)" stroke-width="1.5"></path>
        <path d="M990.46 538.73L1132.19 513.36" stroke="hsl(0, 100%, 65%)" stroke-width="1.5"></path>
        <path d="M990.46 538.73L1121.07 411.32" stroke="hsl(0, 100%, 65%)" stroke-width="1.5"></path>
        <path d="M1113.76 244.37L1113.76 244.37" stroke="hsl(0, 100%, 65%)" stroke-width="1.5"></path>
        <path d="M1113.76 244.37L1267.61 235.6" stroke="hsl(0, 100%, 65%)" stroke-width="1.5"></path>
        <path d="M1113.76 244.37L1121.07 411.32" stroke="hsl(0, 100%, 65%)" stroke-width="1.5"></path>
        <path d="M1121.07 411.32L1121.07 411.32" stroke="hsl(0, 100%, 65%)" stroke-width="1.5"></path>
        <path d="M1121.07 411.32L1132.19 513.36" stroke="hsl(0, 100%, 65%)" stroke-width="1.5"></path>
        <path d="M1121.07 411.32L1298.78 350.08" stroke="hsl(0, 100%, 65%)" stroke-width="1.5"></path>
        <path d="M1132.19 513.36L1132.19 513.36" stroke="hsl(0, 100%, 65%)" stroke-width="1.5"></path>
        <path d="M1132.19 513.36L1161.09 672.99" stroke="hsl(0, 100%, 65%)" stroke-width="1.5"></path>
        <path d="M1132.19 513.36L1309.37 519.53" stroke="hsl(0, 100%, 65%)" stroke-width="1.5"></path>
        <path d="M1161.09 672.99L1161.09 672.99" stroke="hsl(0, 100%, 65%)" stroke-width="1.5"></path>
        <path d="M1311.83 -63.65L1311.83 -63.65" stroke="hsl(0, 100%, 65%)" stroke-width="1.5"></path>
        <path d="M1311.83 -63.65L1460.39 -87.24" stroke="hsl(0, 100%, 65%)" stroke-width="1.5"></path>
        <path d="M1311.83 -63.65L1307.18 100.8" stroke="hsl(0, 100%, 65%)" stroke-width="1.5"></path>
        <path d="M1307.18 100.8L1307.18 100.8" stroke="hsl(0, 100%, 65%)" stroke-width="1.5"></path>
        <path d="M1307.18 100.8L1267.61 235.6" stroke="hsl(0, 100%, 65%)" stroke-width="1.5"></path>
        <path d="M1307.18 100.8L1454.47 41.24" stroke="hsl(0, 100%, 65%)" stroke-width="1.5"></path>
        <path d="M1307.18 100.8L1424.88 261.56" stroke="hsl(0, 100%, 65%)" stroke-width="1.5"></path>
        <path d="M1307.18 100.8L1113.76 244.37" stroke="hsl(0, 100%, 65%)" stroke-width="1.5"></path>
        <path d="M1307.18 100.8L1460.39 -87.24" stroke="hsl(0, 100%, 65%)" stroke-width="1.5"></path>
        <path d="M1267.61 235.6L1267.61 235.6" stroke="hsl(0, 100%, 65%)" stroke-width="1.5"></path>
        <path d="M1267.61 235.6L1298.78 350.08" stroke="hsl(0, 100%, 65%)" stroke-width="1.5"></path>
        <path d="M1267.61 235.6L1424.88 261.56" stroke="hsl(0, 100%, 65%)" stroke-width="1.5"></path>
        <path d="M1267.61 235.6L1404.18 405.89" stroke="hsl(0, 100%, 65%)" stroke-width="1.5"></path>
        <path d="M1267.61 235.6L1121.07 411.32" stroke="hsl(0, 100%, 65%)" stroke-width="1.5"></path>
        <path d="M1298.78 350.08L1298.78 350.08" stroke="hsl(0, 100%, 65%)" stroke-width="1.5"></path>
        <path d="M1309.37 519.53L1309.37 519.53" stroke="hsl(0, 100%, 65%)" stroke-width="1.5"></path>
        <path d="M1309.37 519.53L1428.48 553.08" stroke="hsl(0, 100%, 65%)" stroke-width="1.5"></path>
        <path d="M1309.37 519.53L1404.18 405.89" stroke="hsl(0, 100%, 65%)" stroke-width="1.5"></path>
        <path d="M1309.37 519.53L1298.78 350.08" stroke="hsl(0, 100%, 65%)" stroke-width="1.5"></path>
        <path d="M1460.39 -87.24L1460.39 -87.24" stroke="hsl(0, 100%, 65%)" stroke-width="1.5"></path>
        <path d="M1460.39 -87.24L1539.2 -103.41" stroke="hsl(0, 100%, 65%)" stroke-width="1.5"></path>
        <path d="M1460.39 -87.24L1454.47 41.24" stroke="hsl(0, 100%, 65%)" stroke-width="1.5"></path>
        <path d="M1460.39 -87.24L1551.13 77.52" stroke="hsl(0, 100%, 65%)" stroke-width="1.5"></path>
        <path d="M1454.47 41.24L1454.47 41.24" stroke="hsl(0, 100%, 65%)" stroke-width="1.5"></path>
        <path d="M1454.47 41.24L1551.13 77.52" stroke="hsl(0, 100%, 65%)" stroke-width="1.5"></path>
        <path d="M1424.88 261.56L1424.88 261.56" stroke="hsl(0, 100%, 65%)" stroke-width="1.5"></path>
        <path d="M1424.88 261.56L1404.18 405.89" stroke="hsl(0, 100%, 65%)" stroke-width="1.5"></path>
        <path d="M1424.88 261.56L1298.78 350.08" stroke="hsl(0, 100%, 65%)" stroke-width="1.5"></path>
        <path d="M1424.88 261.56L1568.44 194.59" stroke="hsl(0, 100%, 65%)" stroke-width="1.5"></path>
        <path d="M1404.18 405.89L1404.18 405.89" stroke="hsl(0, 100%, 65%)" stroke-width="1.5"></path>
        <path d="M1404.18 405.89L1298.78 350.08" stroke="hsl(0, 100%, 65%)" stroke-width="1.5"></path>
        <path d="M1404.18 405.89L1428.48 553.08" stroke="hsl(0, 100%, 65%)" stroke-width="1.5"></path>
        <path d="M1404.18 405.89L1593.16 359.03" stroke="hsl(0, 100%, 65%)" stroke-width="1.5"></path>
        <path d="M1428.48 553.08L1428.48 553.08" stroke="hsl(0, 100%, 65%)" stroke-width="1.5"></path>
        <path d="M1428.48 553.08L1564.09 559.41" stroke="hsl(0, 100%, 65%)" stroke-width="1.5"></path>
        <path d="M1539.2 -103.41L1539.2 -103.41" stroke="hsl(0, 100%, 65%)" stroke-width="1.5"></path>
        <path d="M1551.13 77.52L1551.13 77.52" stroke="hsl(0, 100%, 65%)" stroke-width="1.5"></path>
        <path d="M1551.13 77.52L1539.2 -103.41" stroke="hsl(0, 100%, 65%)" stroke-width="1.5"></path>
        <path d="M1593.16 359.03L1593.16 359.03" stroke="hsl(0, 100%, 65%)" stroke-width="1.5"></path>
        <path d="M1593.16 359.03L1568.44 194.59" stroke="hsl(0, 100%, 65%)" stroke-width="1.5"></path>
        <path d="M1593.16 359.03L1424.88 261.56" stroke="hsl(0, 100%, 65%)" stroke-width="1.5"></path>
        <path d="M1564.09 559.41L1564.09 559.41" stroke="hsl(0, 100%, 65%)" stroke-width="1.5"></path>
        <path d="M1564.09 559.41L1564.19 658.02" stroke="hsl(0, 100%, 65%)" stroke-width="1.5"></path>
        <path d="M1564.09 559.41L1593.16 359.03" stroke="hsl(0, 100%, 65%)" stroke-width="1.5"></path>
        <path d="M1564.09 559.41L1404.18 405.89" stroke="hsl(0, 100%, 65%)" stroke-width="1.5"></path>
        <path d="M1564.19 658.02L1564.19 658.02" stroke="hsl(0, 100%, 65%)" stroke-width="1.5"></path>
        <circle r="25" cx="248.6" cy="554.87" fill="url(&quot;#SvgjsRadialGradient1017&quot;)"></circle>
        <circle r="25" cx="645.02" cy="379.59" fill="url(&quot;#SvgjsRadialGradient1017&quot;)"></circle>
        <circle r="25" cx="830.8" cy="655.09" fill="url(&quot;#SvgjsRadialGradient1017&quot;)"></circle>
        <circle r="25" cx="1263.18" cy="669.11" fill="url(&quot;#SvgjsRadialGradient1017&quot;)"></circle>
        <circle r="25" cx="1426.94" cy="695.91" fill="url(&quot;#SvgjsRadialGradient1017&quot;)"></circle>
        <circle r="25" cx="1568.44" cy="194.59" fill="url(&quot;#SvgjsRadialGradient1017&quot;)"></circle>
        <circle r="5" cx="-69.56" cy="514.28" fill="#ff8080"></circle>
        <circle r="5" cx="-74.93" cy="680.02" fill="#ff8080"></circle>
        <circle r="5" cx="71.17" cy="546.23" fill="#ff8080"></circle>
        <circle r="5" cx="79.09" cy="693.78" fill="#ff8080"></circle>
        <circle r="5" cx="245.75" cy="644.62" fill="#ff8080"></circle>
        <circle r="5" cx="403.67" cy="524.34" fill="#ff8080"></circle>
        <circle r="5" cx="385.4" cy="678.2" fill="#ff8080"></circle>
        <circle r="5" cx="541.06" cy="520.64" fill="#ff8080"></circle>
        <circle r="5" cx="525.86" cy="663.58" fill="#ff8080"></circle>
        <circle r="5" cx="675.43" cy="523.48" fill="#ff8080"></circle>
        <circle r="5" cx="684.67" cy="638.94" fill="#ff8080"></circle>
        <circle r="5" cx="833.18" cy="402.19" fill="#ff8080"></circle>
        <circle r="5" cx="978.53" cy="349.35" fill="#ff8080"></circle>
        <circle r="5" cx="990.46" cy="538.73" fill="#ff8080"></circle>
        <circle r="5" cx="1113.76" cy="244.37" fill="#ff8080"></circle>
        <circle r="5" cx="1121.07" cy="411.32" fill="#ff8080"></circle>
        <circle r="5" cx="1132.19" cy="513.36" fill="#ff8080"></circle>
        <circle r="5" cx="1161.09" cy="672.99" fill="#ff8080"></circle>
        <circle r="5" cx="1311.83" cy="-63.65" fill="#ff8080"></circle>
        <circle r="5" cx="1307.18" cy="100.8" fill="#ff8080"></circle>
        <circle r="5" cx="1267.61" cy="235.6" fill="#ff8080"></circle>
        <circle r="5" cx="1298.78" cy="350.08" fill="#ff8080"></circle>
        <circle r="5" cx="1309.37" cy="519.53" fill="#ff8080"></circle>
        <circle r="5" cx="1460.39" cy="-87.24" fill="#ff8080"></circle>
        <circle r="5" cx="1454.47" cy="41.24" fill="#ff8080"></circle>
        <circle r="5" cx="1424.88" cy="261.56" fill="#ff8080"></circle>
        <circle r="5" cx="1404.18" cy="405.89" fill="#ff8080"></circle>
        <circle r="5" cx="1428.48" cy="553.08" fill="#ff8080"></circle>
        <circle r="5" cx="1539.2" cy="-103.41" fill="#ff8080"></circle>
        <circle r="5" cx="1551.13" cy="77.52" fill="#ff8080"></circle>
        <circle r="5" cx="1593.16" cy="359.03" fill="#ff8080"></circle>
        <circle r="5" cx="1564.09" cy="559.41" fill="#ff8080"></circle>
        <circle r="5" cx="1564.19" cy="658.02" fill="#ff8080"></circle>
    </g>
    <defs>
        <mask id="SvgjsMask1016">
            <rect width="1440" height="560" fill="#ffffff"></rect>
        </mask>
        <radialGradient id="SvgjsRadialGradient1017">
            <stop stop-color="#ffffff" offset="0.1"></stop>
            <stop stop-color="rgba(255, 0, 0, 1)" offset="0.2"></stop>
            <stop stop-color="rgba(255, 0, 0, 0)" offset="1"></stop>
        </radialGradient>
    </defs>
</svg>